<svg width="193" height="40" fill="none" xmlns="http://www.w3.org/2000/svg"><g clip-path="url(#clip0)"><path d="M21.646 11.936l-.038.044-2.294-2.263a11.622 11.622 0 00-7.329-3.41 11.27 11.27 0 00-5.972 1.26 11.076 11.076 0 00-4.401 4.175 9.838 9.838 0 00-1.125 2.853 10.834 10.834 0 00.082 5.581 10.946 10.946 0 002.854 4.82L16.95 38.12a6.623 6.623 0 002.159 1.402 6.696 6.696 0 002.538.479V11.936z" fill="url(#paint0_linear)"/><path d="M19.312 9.743a11.916 11.916 0 00-5.847-3.135 11.143 11.143 0 00-6.582.675 10.96 10.96 0 00-5 4.278 10.403 10.403 0 00-1.588 6.307 10.69 10.69 0 002.3 6.088c.738.84 1.518 1.642 2.34 2.401l2.415 2.345 9.604 9.405-9.737-9.286-2.428-2.326a30.435 30.435 0 01-2.365-2.407 10.848 10.848 0 01-2.402-6.214c-.145-2.266.44-4.52 1.671-6.439a11.398 11.398 0 015.085-4.32 11.414 11.414 0 016.687-.626 11.948 11.948 0 015.847 3.254z" fill="#EB9AC2"/><path d="M21.646 11.937l-.032.043-1.76-2.263c-1.507-1.937-3.496-3.229-5.626-3.41-3.222-.27-6.241 1.736-7.97 5.435a11.796 11.796 0 00-.89 2.828 13.158 13.158 0 00.031 5.432 13.246 13.246 0 002.225 4.97l10.412 13.122a4.539 4.539 0 001.58 1.362 4.607 4.607 0 002.03.519V11.937z" fill="url(#paint1_linear)"/><path d="M21.613 12.005c-1.334-1.617-2.491-3.46-4.328-4.545a6.7 6.7 0 00-6.038-.627 9.032 9.032 0 00-4.488 4.188 12.54 12.54 0 00-1.494 5.994 13.101 13.101 0 001.272 6.044c.467.935 1.05 1.809 1.735 2.602l1.958 2.508c2.614 3.306 5.21 6.627 7.786 9.962-2.649-3.28-5.286-6.579-7.913-9.893l-1.99-2.44a13.065 13.065 0 01-1.773-2.633 13.277 13.277 0 01-1.354-6.144 12.702 12.702 0 011.563-6.094 9.212 9.212 0 014.621-4.245 6.842 6.842 0 016.172.671c1.856 1.141 2.968 3.016 4.271 4.652z" fill="#BDE6F2"/><path d="M21.647 11.937v.043l-1.075-2.263c-.927-1.937-2.148-3.229-3.45-3.41-1.978-.27-3.815 1.736-4.882 5.435a16.55 16.55 0 00-.547 2.828c-.439 3.875.095 7.712 1.38 10.401l6.355 13.123c.636 1.254 1.418 1.88 2.212 1.88l.007-28.037z" fill="url(#paint2_linear)"/><path d="M20.552 9.742a9.587 9.587 0 00-1.411-2.131 3.443 3.443 0 00-2.161-1.223 2.993 2.993 0 00-1.24.203 2.958 2.958 0 00-1.042.694 7.416 7.416 0 00-1.462 2.056 13.755 13.755 0 00-.896 2.376l-.483 2.508a21.158 21.158 0 00-.108 5.072 17.83 17.83 0 001.093 4.947c.674 1.555 1.462 3.085 2.187 4.627a596.361 596.361 0 014.404 9.26 639.958 639.958 0 01-4.563-9.184c-.744-1.543-1.538-3.048-2.238-4.621a17.85 17.85 0 01-1.15-5.016c-.16-1.71-.108-3.431.152-5.129l.509-2.508c.236-.827.548-1.63.934-2.4a7.584 7.584 0 011.52-2.095c.313-.31.692-.55 1.109-.703a3.115 3.115 0 011.306-.181c.86.134 1.638.581 2.18 1.254a9.321 9.321 0 011.36 2.194z" fill="#C6C4E2"/><path d="M21.647 11.987L30.29 3.46A11.615 11.615 0 0137.626.024a11.264 11.264 0 015.976 1.267 11.07 11.07 0 014.397 4.188c.53.88.92 1.836 1.157 2.834a10.834 10.834 0 01-.068 5.577 10.945 10.945 0 01-2.837 4.824L26.293 38.15a6.659 6.659 0 01-4.614 1.844l-.032-28.007z" fill="url(#paint3_linear)"/><path d="M47.167 28.448l1.389 8.86 1.388-8.86a.187.187 0 01.177-.144h1.297a.17.17 0 01.112.04.166.166 0 01.057.104l2.09 11.338a.164.164 0 01-.033.144.17.17 0 01-.136.061h-1.211a.17.17 0 01-.115-.043.166.166 0 01-.055-.109l-1.411-9.12-1.49 9.12a.174.174 0 01-.059.11.179.179 0 01-.117.042h-.957a.182.182 0 01-.177-.144l-1.543-9.165-1.389 9.12a.175.175 0 01-.06.108.179.179 0 01-.117.043h-1.204a.18.18 0 01-.137-.061.174.174 0 01-.04-.144l2.075-11.338a.166.166 0 01.057-.104.17.17 0 01.113-.04h1.319a.17.17 0 01.168.11.166.166 0 01.01.072zM56.388 39.817V35.03l-2.893-6.482a.173.173 0 01.079-.222.18.18 0 01.083-.021h1.258a.187.187 0 01.17.114l2.066 5.266 2.114-5.274a.194.194 0 01.17-.106h1.489l-3.001 6.726v4.787c0 .047-.019.091-.052.124a.179.179 0 01-.126.05h-1.164a.181.181 0 01-.136-.045.175.175 0 01-.057-.129zM80.894 38.943l-2.19-14.888-2.191 14.888a.758.758 0 01-.254.432.778.778 0 01-.471.183h-4.073a.778.778 0 01-.459-.174.759.759 0 01-.259-.41l-4.443-22.61a.704.704 0 01.15-.598.724.724 0 01.567-.26h3.788c.174.007.34.072.471.183a.758.758 0 01.254.432l2.237 15.503 2.515-15.51a.711.711 0 01.244-.435.731.731 0 01.473-.173h2.9c.173.007.338.07.47.18.131.11.221.261.256.428l2.553 15.51L85.63 16.13a.711.711 0 01.243-.447.731.731 0 01.483-.176h3.787a.78.78 0 01.549.275.756.756 0 01.169.584L86.41 38.973a.713.713 0 01-.251.421.732.732 0 01-.467.164H81.62a.778.778 0 01-.47-.183.757.757 0 01-.255-.432zM93.607 38.836V16.227a.755.755 0 01.24-.513.777.777 0 01.531-.209h3.765a.735.735 0 01.546.195.713.713 0 01.225.527v22.609a.754.754 0 01-.226.537.778.778 0 01-.545.223h-3.765c-.204 0-.4-.08-.545-.223a.754.754 0 01-.226-.537zM101.876 37.058l1.458-2.28a.706.706 0 01.481-.329.721.721 0 01.568.139 6.395 6.395 0 003.942 1.353 2.636 2.636 0 001.973-.696 2.55 2.55 0 00.812-1.903c0-4.256-8.802-4.256-8.802-11.506 0-3.602 2.823-6.703 7.714-6.703a9.819 9.819 0 015.5 1.558.75.75 0 01.193.942l-1.281 2.197a.77.77 0 01-.806.326.772.772 0 01-.281-.121 5.649 5.649 0 00-3.155-.89 2.439 2.439 0 00-1.825.652 2.364 2.364 0 00-.744 1.765c0 3.755 8.794 4.256 8.794 11.468 0 4.043-3.032 6.961-7.76 6.961a10.682 10.682 0 01-6.627-1.968.755.755 0 01-.154-.965zM130.15 38.836v-9.667h-5.307v9.667a.753.753 0 01-.226.537.779.779 0 01-.546.223h-3.764a.778.778 0 01-.521-.236.757.757 0 01-.212-.524V16.227a.76.76 0 01.225-.5.78.78 0 01.508-.222h3.764a.736.736 0 01.546.195.708.708 0 01.226.527v8.975h5.307v-8.975a.758.758 0 01.239-.513.778.778 0 01.532-.209h3.765a.73.73 0 01.679.445.715.715 0 01.054.277v22.609a.753.753 0 01-.213.524.774.774 0 01-.52.236h-3.765c-.204 0-.4-.08-.545-.223a.753.753 0 01-.226-.537zM139.69 38.836V16.228a.758.758 0 01.239-.513.778.778 0 01.532-.21h3.765a.73.73 0 01.679.445.715.715 0 01.054.278v19.325h6.171c.204 0 .4.08.545.223a.753.753 0 01.226.537v2.561a.753.753 0 01-.226.538.778.778 0 01-.545.222h-10.707a.782.782 0 01-.535-.249.756.756 0 01-.198-.549zM154.832 38.836V16.228a.758.758 0 01.239-.513.778.778 0 01.532-.21h3.765a.73.73 0 01.679.445.715.715 0 01.054.278v22.608a.753.753 0 01-.213.525.774.774 0 01-.52.235h-3.765c-.204 0-.4-.08-.545-.222a.753.753 0 01-.226-.538zM163.071 37.058l1.458-2.28a.703.703 0 01.481-.329.721.721 0 01.568.139 6.393 6.393 0 003.942 1.353 2.636 2.636 0 001.963-.702 2.526 2.526 0 00.806-1.898c0-4.255-8.794-4.255-8.794-11.505 0-3.602 2.816-6.703 7.714-6.703a9.819 9.819 0 015.5 1.558.752.752 0 01.208.92l-1.288 2.219a.775.775 0 01-1.087.205 5.649 5.649 0 00-3.155-.89 2.439 2.439 0 00-1.825.652 2.364 2.364 0 00-.744 1.765c0 3.755 8.794 4.256 8.794 11.468 0 4.043-3.032 6.961-7.76 6.961a10.682 10.682 0 01-6.627-1.968.754.754 0 01-.154-.965zM183.582 38.836V19.511h-3.456a.78.78 0 01-.508-.222.755.755 0 01-.225-.5v-2.561a.755.755 0 01.225-.5.78.78 0 01.508-.222h12.149a.74.74 0 01.516.212.72.72 0 01.209.51v2.56a.753.753 0 01-.222.499.777.777 0 01-.503.224h-3.463v19.325a.757.757 0 01-.212.525.778.778 0 01-.521.235h-3.764a.776.776 0 01-.521-.235.748.748 0 01-.212-.525z" fill="#222"/></g><defs><linearGradient id="paint0_linear" x1="1.65" y1="23.153" x2="20.051" y2="23.153" gradientUnits="userSpaceOnUse"><stop stop-color="#EC008C"/><stop offset="1" stop-color="#662D91"/></linearGradient><linearGradient id="paint1_linear" x1="5.482" y1="23.153" x2="16.053" y2="23.153" gradientUnits="userSpaceOnUse"><stop stop-color="#90D6E8"/><stop offset="1" stop-color="#6ABCE9"/></linearGradient><linearGradient id="paint2_linear" x1="36.863" y1="40.37" x2="27.121" y2="30.494" gradientUnits="userSpaceOnUse"><stop stop-color="#8383BF"/><stop offset="1" stop-color="#6B5BA7"/></linearGradient><linearGradient id="paint3_linear" x1="11973.3" y1="1662.54" x2="13751" y2="969.168" gradientUnits="userSpaceOnUse"><stop stop-color="#8383BF"/><stop offset="1" stop-color="#6B5BA7"/></linearGradient><clipPath id="clip0"><path fill="#fff" d="M0 0h193v40H0z"/></clipPath></defs></svg>